<?xml version="1.0" encoding="UTF-8"?>
<svg id="Layer_1" xmlns="http://www.w3.org/2000/svg" version="1.1" viewBox="0 0 1000 1000">
  <!-- Generator: Adobe Illustrator 30.2.1, SVG Export Plug-In . SVG Version: 2.1.1 Build 1)  -->
  <defs>
    <style>
      .st0 {
        fill: #231f20;
      }
    </style>
  </defs>
  <path class="st0" d="M618.64,231.51c-.96-11.89-6.61-22.92-15.7-30.65l-130.44-110.91c-18.93-16.1-47.33-13.8-63.43,5.13l-135.88,159.81-125.87,148.03c-4.87,5.73-8.23,12.59-9.77,19.96l-32.51,155.76c-2.59,12.44.19,25.39,7.66,35.67,7.48,10.27,18.94,16.91,31.58,18.27l65.04,7c1.61.17,3.22.26,4.82.26,13.38,0,26.17-5.97,34.77-16.44l25.5-31.05,42.51-4.64c11.43-1.24,21.95-6.82,29.4-15.58l148.39-174.52,113.36-133.32c7.73-9.09,11.54-20.88,10.57-32.78ZM289.36,500.19l-42.94,4.68c-11.7,1.27-22.43,7.08-29.9,16.17l-10.08,12.26,16.87-80.81,126.21-148.42,68.87,44.37-129.03,151.75Z"/>
  <path class="st0" d="M850.91,843.4H149.09c-33.14,0-60-26.86-60-60s26.86-60,60-60h701.81c33.14,0,60,26.86,60,60s-26.86,60-60,60Z"/>
</svg>