<?xml version="1.0" encoding="UTF-8" standalone="no"?><!DOCTYPE svg PUBLIC "-//W3C//DTD SVG 1.1//EN" "http://www.w3.org/Graphics/SVG/1.1/DTD/svg11.dtd"><svg width="100%" height="100%" viewBox="0 0 2250 2250" version="1.1" xmlns="http://www.w3.org/2000/svg" xmlns:xlink="http://www.w3.org/1999/xlink" xml:space="preserve" xmlns:serif="http://www.serif.com/" style="fill-rule:evenodd;clip-rule:evenodd;stroke-linejoin:round;stroke-miterlimit:2;"><rect id="Artboard1" x="0" y="0" width="2250" height="2250" style="fill:none;"/><g id="Artboard11" serif:id="Artboard1"><rect x="337.5" y="0" width="225" height="225"/><rect x="337.5" y="450" width="225" height="225"/><rect x="337.5" y="900" width="225" height="225"/><rect x="337.5" y="225" width="225" height="225"/><rect x="337.5" y="675" width="225" height="225"/><rect x="562.5" y="675" width="225" height="225"/><rect x="787.5" y="450" width="225" height="225"/><rect x="787.5" y="900" width="225" height="225"/><rect x="787.5" y="1125" width="225" height="225"/><rect x="337.5" y="1125" width="225" height="225"/><rect x="1012.5" y="0" width="225" height="225"/><rect x="787.5" y="0" width="225" height="225"/><rect x="1012.5" y="225" width="225" height="225"/><rect x="1012.5" y="450" width="225" height="225"/><rect x="1012.5" y="675" width="225" height="225"/><rect x="1012.5" y="900" width="225" height="225"/><rect x="1237.5" y="1125" width="225" height="225"/><rect x="337.5" y="1125" width="225" height="225"/><rect x="337.5" y="1350" width="225" height="225"/><rect x="337.5" y="1800" width="225" height="225"/><rect x="337.5" y="1575" width="225" height="225"/><rect x="337.5" y="2025" width="225" height="225"/><rect x="562.5" y="2025" width="225" height="225"/><rect x="787.5" y="1800" width="225" height="225"/><rect x="787.5" y="1575" width="225" height="225"/><rect x="787.5" y="1350" width="225" height="225"/><rect x="562.5" y="1350" width="225" height="225"/><rect x="787.5" y="1575" width="225" height="225"/><rect x="787.5" y="1800" width="225" height="225"/><rect x="1012.5" y="2025" width="225" height="225"/><rect x="1237.5" y="1800" width="225" height="225"/><rect x="1237.5" y="1575" width="225" height="225"/><rect x="1012.5" y="1350" width="225" height="225"/><rect x="1237.5" y="675" width="225" height="225"/><rect x="1462.5" y="900" width="225" height="225"/><rect x="1687.5" y="675" width="225" height="225"/><rect x="1462.5" y="450" width="225" height="225"/><rect x="1237.5" y="1350" width="225" height="225"/><rect x="1237.5" y="1575" width="225" height="225"/><rect x="1237.5" y="1800" width="225" height="225"/><rect x="1462.5" y="2025" width="225" height="225"/><rect x="1687.5" y="1800" width="225" height="225"/><rect x="1237.5" y="1125" width="225" height="225"/><rect x="1462.5" y="1350" width="225" height="225"/></g></svg>