<?xml version="1.0" encoding="UTF-8"?>
<svg id="Layer_1" xmlns="http://www.w3.org/2000/svg" version="1.1" viewBox="0 0 961.45 354.64">
  <!-- Generator: Adobe Illustrator 30.2.1, SVG Export Plug-In . SVG Version: 2.1.1 Build 1)  -->
  <defs>
    <style>
      .st0 {
        fill: #231f20;
      }
    </style>
  </defs>
  <g>
    <path class="st0" d="M77.8,90.63c-26.37,0-37.49,10.41-49.26,23.99-7.71,8.81-11.45,19.45-11.45,32.54,0,25.24,5.08,45.61,10.13,54.63,9.01,16.93,24.21,27.44,39.67,27.44s24.63-8.53,34.16-16.79c10.98-9.58,20.5-22.68,24.23-30.69,4.5-9.74,4.87-22.66,4.87-35.06,0-41.4-13.7-56.07-52.35-56.07ZM102.05,147.86c0,16.12-1.65,20.34-2.16,21.25l-.23.46c-2.53,5.91-8.32,12.82-16.75,19.98l-.08.07c-4.25,3.78-12.16,10.81-16.18,10.81-1.33,0-3.29-.72-7.81-6.15-6.8-7.94-11.33-16.97-11.33-35.28,0-8.87,1.07-16.74,2.72-20.05l.1-.21c6.58-14.8,13.86-19.32,31.18-19.32,9.62,0,10.34.81,17.25,8.58l.28.31c1.03,1.41,3,8.71,3,19.53Z"/>
    <path class="st0" d="M257.71,199.74h-9.29c-4.04,0-7.86,0-9.28-.57l-.65-.21c-3.17-.79-10.34-4.85-15.57-7.81-2.64-1.49-4.94-2.79-6.75-3.72-7.69-5.4-14.93-12.33-19.76-17.15.59-.48,1.22-.97,1.86-1.49,4.13-3.3,9.27-7.41,13.19-11.03,8.96-8.49,21.95-21.94,26.81-27.76,2.18-2.45,3.81-3.91,5.12-5.09,3.82-3.43,5.37-5.49,5.37-12.1,0-7.94-3.56-11.96-10.57-11.96-1.42,0-3.81,0-16.66,8.9-1.19.83-11.74,8.16-14.11,11.01l-.34.46c-3.19,4.86-16.67,15.58-26.52,22.5-.14-3.02-.4-6.92-1-12.32-.53-5.79-1-15.73-1.49-26.25-.85-17.91-1.72-36.43-3.21-44.79-1.26-6.71-1.77-13.97-1.77-25.08s0-23.57-14.29-23.57c-9.81,0-15.68,9.39-15.68,18.46,0,6.83,1.9,23.97,3.16,35.31.49,4.42,1,8.98,1.02,9.72,0,20.03.95,33.74,1.88,47,.8,11.48,1.62,23.35,1.84,39.45.33,16.23.9,27,1.2,32.79.11,2.07.19,3.71.19,4.25,0,4.23,0,7.57.48,16.12.62,9.3,5.85,14.42,14.74,14.42,7.63,0,18.93-4.83,18.93-15.21,0-2.06-.81-4.05-1.67-6.16-.38-.93-.79-1.93-1.1-2.9.36.28.73.57,1.1.86,14.49,12.14,30.57,19.83,47.8,22.88l.37.05c4.89.49,7.43.49,8.39.49,4.89,0,11.76-2.43,17.82-4.71l.65-.25.48-.21c4.23-2.12,8.8-7.8,8.8-13.29,0-5.88-5.37-11.04-11.5-11.04Z"/>
    <path class="st0" d="M385.45,198.41c-.04-.37-.15-2-.15-9.15,0-5.14.05-11.85.1-18.34.05-6.7.1-13.63.1-19.11,0-43.14-4.11-61.18-29.61-61.18-23.22,0-29.5,7.02-38.26,23-5.6,10.09-10.51,19.37-14.7,28.58-.53-10.27-1-20.48-1-22.44v-.13c-.06-2.34-.11-4.46-.15-6.38-.28-12.94-.4-18.29-4.82-23.27l-.33-.38-.4-.3c-.4-.3-.74-.6-1.05-.87-1.31-1.14-3.29-2.85-6.4-2.91-.21-.01-.43-.02-.64-.02-9.51,0-19.25,11.79-19.86,20.93v.33c-.01,3.89,2.48,6.1,4.22,7.34.45,1.83.45,7.24.45,9.66,0,1.48,0,3.11-.02,4.91-.01,2.2-.02,4.64-.02,7.34,0,5.77.84,28.05,2.93,48.98,3.76,37.77,8.54,45.16,15.54,45.16,6.12,0,14.17-2.46,17.78-14.21l.04-.14c9.23-33.42,21.2-59.37,31.69-80.34,5.94-11.88,9.19-13.35,9.55-13.49,1.99,0,2.68.18,3.44,2.98,1.13,4.16,1.22,11.63,1.22,21.73,0,21.31-.32,37.6-.9,45.92-.1.81-.15,1.83-.15,3.17,0,5.05.71,13.51,1.09,16.92l.03.21c1.54,9.98,6.85,15.31,15.79,15.84h.29c5.66,0,18.93,0,18.93-15.21,0-3.89-1.45-6.99-2.72-9.74-.86-1.86-1.68-3.61-1.98-5.41Z"/>
    <path class="st0" d="M462.68,90.63c-26.37,0-37.49,10.41-49.26,23.99-7.71,8.81-11.45,19.45-11.45,32.54,0,25.24,5.08,45.61,10.13,54.63,9.01,16.93,24.21,27.44,39.67,27.44s24.63-8.53,34.16-16.79c10.98-9.58,20.5-22.68,24.23-30.69,4.5-9.74,4.87-22.66,4.87-35.06,0-41.4-13.7-56.07-52.35-56.07ZM486.93,147.86c0,16.12-1.65,20.34-2.16,21.25l-.23.46c-2.53,5.91-8.33,12.82-16.75,19.98l-.08.07c-4.25,3.78-12.16,10.81-16.18,10.81-1.33,0-3.29-.72-7.81-6.15-6.8-7.94-11.33-16.97-11.33-35.28,0-8.87,1.07-16.74,2.72-20.05l.1-.21c6.58-14.8,13.86-19.32,31.18-19.32,9.62,0,10.34.81,17.25,8.58l.28.31c1.03,1.41,3,8.71,3,19.53Z"/>
    <path class="st0" d="M629.82,185.81c-4.84,0-6.53,3.31-7.16,4.55-.06.12-.12.25-.2.39-1.86,2.29-10.14,9.46-15.85,9.46-6.2,0-12.04-.4-15.38-5.26l-.07-.09c-5.56-7.69-6.02-33.97-6.02-62.53v-17.45c11.95-1.67,39.68-6.03,48.72-11.74,4.78-2.99,8.39-8.6,8.39-13.06,0-7.2-7.97-11.5-15.68-11.5s-12.63,1.01-19.11,3.01c-3.79,1.17-15.4,3.07-22.4,4.14,0-.28-.01-.56-.02-.84-.05-2.06-.1-4-.1-5.93,0-2.17.06-3.97.19-5.71.57-8.36,1.15-14.87,1.62-20.1.69-7.71,1.18-13.28,1.18-19.24,0-15.86-9.33-18-18.46-18-2.72,0-7.55.95-9.37,7.33-.9,3.15-1.06,7.27-1.32,13.5-.09,2.25-.19,4.77-.34,7.53l-.34,5.41c-.82,12.89-1.52,24.03-1.52,34.36,0,3.85-.13,5.26-.24,6.43-5.62.79-12.26,1.1-13.33,1.1-.29,0-.89-.08-1.46-.15-1.11-.14-2.49-.32-4.11-.32-9.96,0-16.14,6.54-16.14,17.07s7.42,15.68,14.75,15.68c4.27,0,10.32-1,19.65-2.71.12,8.8.49,17.95.81,26.21.29,7.21.53,13.44.53,17.54.27,19.4,3.26,34.08,9.14,44.86,7.39,13.55,19.11,20.42,34.86,20.42,18.72,0,23.23-2.86,33.53-11.13.8-.64,1.64-1.31,2.55-2.04.1-.08,10.23-8.7,10.23-15.05,0-8.16-10.04-16.14-17.54-16.14Z"/>
    <path class="st0" d="M749.6,187.66c-5.76,0-15.29,4.1-18.71,7.35-3.58,3.1-11.13,7.5-15.65,7.5-10.64,0-17.73-1.69-21.07-5.03-4.19-4.19-7.49-12.26-8.79-21.23,11.18-3.5,23.6-7.64,34.69-11.34l.34-.13c5.5-2.29,18.16-8.33,22.16-11.1,11.53-6.94,17.13-13.48,17.13-19.98,0-12.22-7.97-19.77-16.42-27.77l-.08-.07c-13.05-11.86-28.54-18.94-41.43-18.94-7.25,0-15.43,2.92-20.86,7.44-17.74,14.94-28.01,31.1-28.01,69.52,0,25.73,5.34,41,19.69,56.35,8.58,9.13,21.28,10.86,41.71,10.86,13.75,0,20.98-4.13,31.11-12.81.57-.49,1.69-1.31,2.89-2.19,7.76-5.69,14.18-10.9,14.18-16.93,0-6.48-6.93-11.5-12.89-11.5ZM725.26,130.37c-12.3,5.73-28.17,10.02-39.85,12.71,2.21-8.79,7.99-19.13,12.18-21.92l.43-.32c1.92-1.6,4.54-2.55,7.01-2.55,7.5,0,14.63,6.18,20.23,12.09Z"/>
    <path class="st0" d="M896.94,213.37c-1.78-5.03-3.04-15.71-4.05-24.33-.39-3.35-.77-6.51-1.14-9.14-5.53-39.64-8.31-59.54-8.31-101.44,0-14.08-.42-24.38-.7-31.2-.13-3.21-.23-5.75-.23-7.34,0-6.18-.26-13.29-2.16-19.13-3.5-10.73-11.13-12.33-15.37-12.33-11.39,0-17.54,15.01-17.54,29.14,0,21.21,1.19,37.17,2.83,59.25.15,2.08.31,4.22.48,6.42-6.93-4.7-14.6-7.07-22.91-7.07-19.39,0-34.82,9.53-44.61,27.57-9.85,18.15-11.92,40.41-11.92,55.89,0,22.13,14.83,46.78,36.11,46.78,24.2,0,35.4-16.74,53.52-47.31.75,5.17,1.36,10.12,1.93,14.74,1.37,11.09,2.55,20.66,4.98,27.69,3.15,9.09,8.59,13.7,16.18,13.7,9.52,0,15.68-5.79,15.68-14.75,0-3.14-1.34-5.09-2.23-6.38-.2-.29-.38-.54-.51-.78ZM811.11,193.24c-6.85,0-9.86-2.16-9.86-22.86,0-23.71,10.89-43.75,23.78-43.75,9.39,0,18.57,8.84,23.59,13.99-5.67,10.71-12.94,24.21-20.03,34.82-11.04,16.52-16.18,17.8-17.49,17.8Z"/>
    <path class="st0" d="M946.82,200.66c-.13-.21-.26-.43-.4-.65-.29-.59-.6-1.28-.94-2.03-1.34-2.98-3.18-7.06-6.01-10.7l-.41-.47c-.89-.89-4.27-3.78-10.5-3.78-3.34,0-7.55.38-10.5,3.32-3.32,3.32-5.64,10.12-5.64,16.53,0,5.77,2.2,9.81,4.99,14.92l.26.48c3.66,6.71,8.03,9.57,14.6,9.57,4.27,0,8.77-2.06,12.36-5.64l.3-.33c3.01-3.61,4.87-8.39,4.87-12.49,0-3.85-1.66-6.55-3-8.72Z"/>
  </g>
  <path class="st0" d="M903.5,266.65c-2.42-3.3-6.24-5.51-10.49-6.08-125-16.78-273.17-2.01-375.45,13.35-112.49,16.88-195.02,37.9-196.9,38.74-3.87,1.73-6.81,4.91-8.05,8.74-1.19,3.67-.78,7.55,1.17,10.93,2.68,4.65,7.87,7.54,13.55,7.54,1.82,0,3.6-.3,5.3-.88,4.1-1.06,83.82-21.14,193.28-37.38,99.14-14.71,242.54-28.85,362.69-12.71,8.39,1.12,16.03-4.09,17.38-11.88.63-3.64-.25-7.33-2.48-10.37Z"/>
</svg>