<?xml version="1.0" encoding="UTF-8"?>
<svg id="Layer_1" xmlns="http://www.w3.org/2000/svg" version="1.1" viewBox="0 0 1000 1000">
  <!-- Generator: Adobe Illustrator 30.2.1, SVG Export Plug-In . SVG Version: 2.1.1 Build 1)  -->
  <defs>
    <style>
      .st0 {
        fill: #231f20;
      }
    </style>
  </defs>
  <path class="st0" d="M544.45,192.12l114.96,100.12.11-.12,115.39,99.62-79.03,16.21-140.91,162.5-4.86,80.52-114.96-100.12.11-.12-115.39-99.62,79.03-16.21,140.69-162.25,4.86-80.52M544.44,102.12c-11.74,0-23.56,2.3-34.79,7-31.63,13.26-52.97,43.35-55.04,77.58l-3.02,50.05-100.69,116.12-49.12,10.08c-33.6,6.89-60.36,32.28-69,65.47-8.65,33.19,2.32,68.41,28.28,90.82l111.23,96.03c1.21,1.18,2.46,2.34,3.76,3.46l114.96,100.12c16.69,14.53,37.77,22.13,59.12,22.13,11.74,0,23.56-2.3,34.79-7,31.63-13.26,52.97-43.35,55.04-77.58l3.02-50.05,100.91-116.37,49.12-10.08c33.6-6.89,60.36-32.28,69.01-65.47,8.65-33.19-2.32-68.41-28.28-90.82l-115.39-99.62c-1.3-1.12-2.62-2.19-3.96-3.23l-110.82-96.51c-16.69-14.53-37.77-22.13-59.12-22.13h0Z"/>
  <path class="st0" d="M833.72,323.61l-115.39-99.62c-1.3-1.12-2.62-2.2-3.96-3.23l-110.81-96.51c-16.69-14.53-37.77-22.13-59.13-22.13-11.74,0-23.56,2.29-34.78,7-31.63,13.26-52.97,43.34-55.04,77.58l-3.02,50.05-100.69,116.12-49.11,10.07c-33.6,6.9-60.36,32.28-69.01,65.47s2.32,68.41,28.28,90.82l111.23,96.03c1.21,1.18,2.47,2.34,3.76,3.46l114.96,100.12c16.68,14.53,37.77,22.13,59.12,22.13,11.74,0,23.56-2.29,34.78-7,31.63-13.26,52.98-43.35,55.04-77.58l3.02-50.05,100.91-116.37,49.11-10.07c33.6-6.9,60.36-32.28,69.01-65.47s-2.32-68.41-28.28-90.82ZM695.88,407.94l-140.91,162.51-4.86,80.52-114.95-100.12.1-.12-115.39-99.62,79.03-16.21,140.69-162.26,4.86-80.52,114.96,100.12.1-.13,115.4,99.62-79.03,16.21Z"/>
  <polygon class="st0" points="774.91 391.73 695.88 407.94 554.97 570.45 550.11 650.97 435.16 550.85 435.26 550.73 319.87 451.11 398.9 434.9 539.59 272.64 544.45 192.12 659.41 292.24 659.51 292.11 774.91 391.73"/>
  <polygon class="st0" points="472.94 583.61 224.91 811 207.41 795.83 397.38 518.1 472.94 583.61 472.94 583.61"/>
</svg>