<?xml version="1.0" encoding="UTF-8"?>
<svg id="Layer_1" xmlns="http://www.w3.org/2000/svg" version="1.1" viewBox="0 0 1000 1000">
  <!-- Generator: Adobe Illustrator 30.2.1, SVG Export Plug-In . SVG Version: 2.1.1 Build 1)  -->
  <defs>
    <style>
      .st0 {
        fill: #231f20;
      }
    </style>
  </defs>
  <path class="st0" d="M671.24,348.89h0M671.24,348.89l-46.05,413.49h-250.36l-46.05-413.49h342.47M671.24,268.89h-342.48c-22.76,0-44.44,9.69-59.62,26.65-15.18,16.96-22.41,39.58-19.89,62.2l46.05,413.49c4.51,40.51,38.75,71.14,79.51,71.14h250.36c40.76,0,75-30.64,79.51-71.14l45.91-412.16c.42-3.34.64-6.74.64-10.19,0-44.18-35.81-80-80-80h0ZM671.24,428.89h0,0Z"/>
  <g>
    <path class="st0" d="M420.68,687.04c-13.81,0-25-11.19-25-25v-231.15c0-13.81,11.19-25,25-25s25,11.19,25,25v231.15c0,13.81-11.19,25-25,25Z"/>
    <path class="st0" d="M500,687.04c-13.81,0-25-11.19-25-25v-231.15c0-13.81,11.19-25,25-25s25,11.19,25,25v231.15c0,13.81-11.19,25-25,25Z"/>
    <path class="st0" d="M579.32,687.04c-13.81,0-25-11.19-25-25v-231.15c0-13.81,11.19-25,25-25s25,11.19,25,25v231.15c0,13.81-11.19,25-25,25Z"/>
  </g>
  <path class="st0" d="M694.66,150.62h-127.62c0-.09,0-.19,0-.28,0-22.09-17.91-40-40-40h-54.09c-22.09,0-40,17.91-40,40,0,.1,0,.19,0,.28h-127.62c-22.09,0-40,17.91-40,40s17.91,40,40,40h389.32c22.09,0,40-17.91,40-40s-17.91-40-40-40Z"/>
</svg>